# xmcd
#
# Track frame offsets:
#	150
#	20575
#	43712
#	63377
#	83465
#	96867
#	120612
#	145732
#
# Disc length: 2283 seconds
#
# Revision: 1
# Processed by: cddbd v1.4PL0 Copyright (c) Steve Scherf et al.
# Submitted via: audiograbber 1.81.02
#
DISCID=6108e908
DTITLE=Darrow, Chris - Coyote '97
DYEAR=1997
DGENRE=
TTITLE0=Prelude: A Distant Call
TTITLE1=Lone Yucca
TTITLE2=The Snake Sheds Its Skin
TTITLE3=Obsidian Trail
TTITLE4=Spirit Of The Sage
TTITLE5=Chaparral Sunset
TTITLE6=Serrano Breeze
TTITLE7=Iron Horse (The Last Brave)
EXTD=
EXTT0=
EXTT1=
EXTT2=
EXTT3=
EXTT4=
EXTT5=
EXTT6=
EXTT7=
PLAYORDER=
